_________________________  Visit us at _________________________
  
http://p2pdl.com  ____________________________  http://p2pdl.com


Black Rock 2012 WEBRip 480p x264 AAC - VYTO


Genre: Horror | Thriller
Plot: Three childhood friends set aside their personal issues and reunite for a girls' weekend on a
remote island off the coast of Maine. One wrong move turns their weekend getaway into a deadly fight
for survival.  
Director: Katie Aselton
Stars: Katie Aselton, Lake Bell, Kate Bosworth.
Rated: R for some strong violence, pervasive language, sexual references and brief graphic nudity.


Info: 
http://www.imdb.com/title/tt1930294/

Trailer:


Format                         : MPEG-4
File size                      : 301 MiB
Duration                       : 1h 19mn
Overall bit rate mode          : Variable
Overall bit rate               : 527 Kbps
Source                         : 720p.WEB-DL.H264-PublicHD

Video
Format                         : AVC
Bit rate                       : 484 Kbps
Width                          : 720 pixels
Height                         : 384 pixels
Display aspect ratio           : 1.85:1
Frame rate mode                : Constant
Frame rate                     : 23.976 fps
Stream size                    : 276 MiB (92%)
Writing library                : x264 core 130 r2273

Audio
Format                         : AAC
Bit rate mode                  : Variable
Bit rate                       : 40.0 Kbps
Channel(s)                     : 2 channels
Channel positions              : Front: L R
Sampling rate                  : 48.0 KHz
Stream size                    : 22.9 MiB (8%)
Language                       : English

Subtitle                       : Yes(English)
 
http://ultraimg.com/images/xaZAW.png 
http://ultraimg.com/images/OgAta.png 
http://ultraimg.com/images/gD768.png 
http://ultraimg.com/images/Ia61H.png 
http://ultraimg.com/images/TAr9M.png


----------------------------------------------------------------------------------------------------


Encoded using revolutionary 10bit encoding, which enables us to provide you more crispier 
and sharper images at small sizes, just make sure you follow our instructions without a fault.
Recommend to you to use latest version of VLC player. Install K-Lite Codec Pack or shark007 codecs
in case of any kind of problem in playback (For non-VLC Media Player users). Alternatively, install
Core AVC codecs, the fastest decoder that there is coupled with Community Center Codec Pack and play
on Windows Media Player Classic. Check sample to be sure.
Enjoy!

Encoder Notes:Looking For Early Access To Anything You Can Provide DVDScr, R5, DVDR, BluRay, Direct
Audio, Music Releases and Seedboxes. We require dedicated servers, so as to do more 
and fast releases of movies.
If You Got anything to offer please contact us at "contact@p2pdl.com".

Face book Fan Page:   
http://www.fb.me/p2pdl